<?xml version="1.0" standalone="no"?>
<!DOCTYPE svg PUBLIC "-//W3C//DTD SVG 20010904//EN"
 "http://www.w3.org/TR/2001/REC-SVG-20010904/DTD/svg10.dtd">
<svg version="1.0" xmlns="http://www.w3.org/2000/svg"
 width="64.000000pt" height="64.000000pt" viewBox="0 0 64.000000 64.000000"
 preserveAspectRatio="xMidYMid meet">
<metadata>
Created by potrace 1.11, written by Peter Selinger 2001-2013
</metadata>
<g transform="translate(0.000000,64.000000) scale(0.100000,-0.100000)"
fill="#000000" stroke="none">
<path d="M291 619 c-10 -11 -36 -26 -56 -34 -32 -10 -44 -10 -76 3 -55 21 -69
12 -69 -47 0 -44 2 -50 20 -48 15 1 20 8 20 29 0 26 2 28 27 21 47 -13 93 -5
134 22 21 14 39 21 39 16 0 -5 19 -18 43 -29 40 -20 71 -22 116 -7 19 6 21 3
21 -38 l0 -45 -197 0 c-109 0 -204 -1 -210 -1 -10 -1 -13 -35 -13 -134 0 -129
1 -134 29 -178 32 -52 114 -115 173 -136 38 -13 43 -12 95 14 30 15 72 42 93
60 58 50 70 85 70 202 0 90 -2 101 -17 101 -10 0 -60 -34 -112 -75 l-94 -76
-28 27 c-26 25 -49 26 -49 1 0 -6 16 -28 36 -48 l37 -38 91 74 91 74 3 -66 c3
-57 -1 -71 -23 -105 -26 -39 -100 -94 -143 -105 -30 -7 -74 12 -132 58 -67 53
-80 87 -80 208 l0 101 210 0 211 0 -3 88 c-3 99 7 91 -103 77 -47 -6 -52 -5
-79 24 -35 36 -48 38 -75 10z"/>
</g>
</svg>
